<?xml version="1.0" encoding="UTF-8"?><svg id="Layer_1" xmlns="http://www.w3.org/2000/svg" xmlns:xlink="http://www.w3.org/1999/xlink" viewBox="0 0 506 301"><defs><style>.cls-1{fill:#22a482;}.cls-2{fill:#4e7eac;}.cls-3{fill:url(#linear-gradient);isolation:isolate;opacity:.54;}.cls-4{fill:#e09736;}.cls-5{stroke:#3b55ce;stroke-width:1.05px;}.cls-5,.cls-6,.cls-7,.cls-8,.cls-9,.cls-10,.cls-11,.cls-12{fill:none;}.cls-5,.cls-6,.cls-7,.cls-8,.cls-9,.cls-11,.cls-12{stroke-miterlimit:10;}.cls-5,.cls-6,.cls-7,.cls-8,.cls-12{stroke-linecap:round;}.cls-13{fill:#8fc9c6;}.cls-6{stroke:#001c45;stroke-width:.79px;}.cls-14{clip-path:url(#clippath-2);}.cls-7,.cls-8{stroke:#aaeeed;}.cls-7,.cls-9,.cls-12{stroke-width:.53px;}.cls-8,.cls-11{stroke-width:.55px;}.cls-15{fill:#ffc854;}.cls-16{fill:#3ed9c7;}.cls-17{fill:#001c45;}.cls-18{fill:#03aa99;}.cls-19{clip-path:url(#clippath-1);}.cls-20{clip-path:url(#clippath-4);}.cls-21{fill:#40c7a7;}.cls-9,.cls-11{stroke:#274d79;}.cls-22{fill:#228c7e;}.cls-23{fill:#85b8ed;}.cls-24{fill:#ba5964;}.cls-25{fill:#aaeeed;}.cls-26{fill:#1e4174;}.cls-27{fill:#3b55ce;}.cls-28{clip-path:url(#clippath);}.cls-29{fill:#ff9a8d;}.cls-30{clip-path:url(#clippath-3);}.cls-31{fill:#ffc253;}.cls-32{fill:#dd7a79;}.cls-33{fill:#91dbac;}.cls-34{clip-path:url(#clippath-5);}.cls-35{fill:#3dc19a;}.cls-12{stroke:#8fc9c6;}.cls-36{fill:#2339a0;}</style><linearGradient id="linear-gradient" x1="319.85" y1="288.82" x2="319.85" y2="8.45" gradientTransform="translate(0 302) scale(1 -1)" gradientUnits="userSpaceOnUse"><stop offset="0" stop-color="#638be3"/><stop offset=".15" stop-color="#78a2e3" stop-opacity=".8"/><stop offset=".35" stop-color="#94bfe4" stop-opacity=".55"/><stop offset=".53" stop-color="#a8d5e5" stop-opacity=".36"/><stop offset=".67" stop-color="#b5e3e5" stop-opacity=".24"/><stop offset=".75" stop-color="#bae8e6" stop-opacity=".2"/></linearGradient><clipPath id="clippath"><path class="cls-10" d="M327.73,199.36c-.06,1.5,.29,5.16-.43,6.72-1.77,.89-4.93,.22-7.14-.95-2.21-1.16-4.16-.35-7.16-.89-2.94-.53-5.17-1.92-5.47-3.28-.33-1.48,4.99-1.28,8.7-1.51,4.15-.26,6.61-1.68,6.61-1.68l4.9,1.6h0Z"/></clipPath><clipPath id="clippath-1"><path class="cls-10" d="M341.52,198.15c1.01,1.12,3.82,3.48,4.39,5.1-.64,1.87-3.37,3.6-5.77,4.32s-3.22,2.66-5.74,4.37c-2.47,1.68-5.04,2.24-6.2,1.48-1.27-.83,2.67-4.41,5.16-7.17,2.79-3.09,3.55-5.82,3.55-5.82l4.62-2.29h-.01Z"/></clipPath><clipPath id="clippath-2"><path class="cls-10" d="M370.74,145.4c.7,1.81,2.28,3.97,3.27,5.65,.99,1.69,4.05,6.18,2.28,10.9-1.9,5.07-6.11,6.33-10.47,6.33h-10.15c-2.97,0-21.26-4.49-21.26-4.49,0,0,2.11,1.21,3.14,4.49s3.11,25.26,3.11,25.26c-1.35,1.36-3.23,1.92-5.63,1.73,0,0-5.53-17.02-7.75-23.35-2.29-6.54-5.03-13.01-4.52-15.85,.72-3.99,7.63-4.11,13.34-3.91s18.84,.69,21.51,.32l-1.38-4.78,14.5-2.3h.01Z"/></clipPath><clipPath id="clippath-3"><path class="cls-10" d="M149.89,280.2c-.28,1.41-1.43,4.71-1.1,6.32,1.44,1.22,4.52,1.3,6.83,.72s3.94,.6,6.84,.77c2.85,.17,5.22-.62,5.8-1.82,.63-1.3-4.34-2.31-7.72-3.35-3.79-1.16-5.75-3.03-5.75-3.03l-4.9,.38h0Z"/></clipPath><clipPath id="clippath-4"><path class="cls-10" d="M105.63,268.35c-1.43,.1-4.92-.13-6.39,.61-.79,1.71-.06,4.7,1.11,6.78s.46,3.96,1.06,6.8c.59,2.79,1.98,4.87,3.28,5.11,1.42,.27,1.08-4.79,1.18-8.33,.12-3.96,1.4-6.35,1.4-6.35l-1.67-4.62h.03Z"/></clipPath><clipPath id="clippath-5"><path class="cls-10" d="M112.33,270.29s25.66-13.9,27.38-15.23,12.04-36.68,12.83-38.97c0,0,7.6-6.19,8.65-11.1l-17.57-11.5c-1.34,2.89-1.33,4.81-4.91,12.04-3.42,6.9-4.65,26.32-7.94,42.79,0,0-1.9,.45-5.28,2.06-3.1,1.48-16.24,15.38-16.24,15.38,0,0,.37,3.07,3.08,4.54h0Z"/></clipPath></defs><g id="Objects"><path class="cls-3" d="M458.46,146.6c-4.19,70.25-82.86,115.23-132.54,132.54-25,8.71-86.74,30.23-122.12-1.49-40.35-36.16-15.78-114.07-10.42-131.06,4.14-13.14,40.89-130.47,132.54-132.54,54.89-1.24,106.81,39.37,125.08,87.94,2.93,7.78,8.71,23.66,7.46,44.6h0Z"/><g><g><g><rect class="cls-31" x="275.2" y="168.29" width="179.12" height="121.15"/><path class="cls-4" d="M275.2,168.29l84.07,76.71c3.11,2.84,7.87,2.84,10.97,0l84.07-76.71h-179.11Z"/><polygon class="cls-4" points="454.32 289.44 364.76 195.97 454.32 281.48 454.32 289.44"/><polygon class="cls-4" points="275.2 289.44 364.76 195.97 275.2 281.48 275.2 289.44"/><path class="cls-15" d="M275.2,168.29l82.78,69.94c3.91,3.31,9.64,3.31,13.55,0l82.78-69.94h-179.11Z"/></g><g><path class="cls-21" d="M440,289.44s-5.67-2.56-5.25-8.64c.41-6.08,4.56-7.33,8.16-9.54,3.59-2.21,3.87-5.94,4.01-10.51s3.18-9.12,9.26-8.85,8.33,1.52,12.74-3.73,10.35-5.12,12.84-2.21c2.49,2.9,2.65,7.9-1.13,11.34-4.59,4.19-5.78,5.24-7.11,9.85-1.8,6.25,.8,12.35-1.52,15.26-3.09,3.89-6.43,2.93-9.61,4.19s-3.3,2.84-3.3,2.84h-19.09Z"/><path class="cls-5" d="M476.27,250.01c-9.3,5.43-25.49,21.92-28.24,39.44"/></g><g><path class="cls-27" d="M334.91,110.39c0-1.54,1.25-2.79,2.79-2.79s2.79,1.25,2.79,2.79-1.25,2.79-2.79,2.79-2.79-1.25-2.79-2.79Z"/><g><path class="cls-25" d="M307.52,200.95c-.38,.43-.42,1.46,1.35,2.75,1.77,1.29,5.4,1.8,6.88,1.86s2.44-.14,4.42,.8,5.45,1.58,6.7,.95c.46-.33,.42-1.25,.42-1.25l-19.77-5.12h0Z"/><g><path class="cls-26" d="M327.73,199.36c-.06,1.5,.29,5.16-.43,6.72-1.77,.89-4.93,.22-7.14-.95-2.21-1.16-4.16-.35-7.16-.89-2.94-.53-5.17-1.92-5.47-3.28-.33-1.48,4.99-1.28,8.7-1.51,4.15-.26,6.61-1.68,6.61-1.68l4.9,1.6h0Z"/><g class="cls-28"><g><path class="cls-8" d="M320.9,200.64s-.22-2.12-1-2.97"/><path class="cls-8" d="M318.02,201.05s-.22-2.12-1-2.97"/><path class="cls-8" d="M315.13,201.46s-.22-2.12-1-2.97"/></g></g></g><path class="cls-29" d="M329.29,194.12l-1.56,5.24s-.71,.06-1.07,.32-.99,1.25-1.46,1.15c-1.86-.37-2.37-3.07-2.37-3.07l1.32-5.48,5.14,1.84h0Z"/></g><path class="cls-26" d="M356.24,147.71l-.71,5.52-19.27-.39s-4.54-.09-5.88,4.52c-1.35,4.61-6.38,35.56-6.38,35.56,0,0,2.71,2,5.46,1.56,0,0,9.09-18.8,10.39-23.96s.65-9.52,.65-9.52l23.23-2.02-7.48-11.29v.02Z"/><g><path class="cls-25" d="M328.19,213.42c.03,.57,.72,1.34,2.89,1.03s5.12-2.49,6.22-3.48c1.1-.99,1.64-1.8,3.72-2.52,2.08-.71,5-2.69,5.45-4.01,.1-.56-.57-1.19-.57-1.19l-17.72,10.17h0Z"/><g><path class="cls-26" d="M341.52,198.15c1.01,1.12,3.82,3.48,4.39,5.1-.64,1.87-3.37,3.6-5.77,4.32s-3.22,2.66-5.74,4.37c-2.47,1.68-5.04,2.24-6.2,1.48-1.27-.83,2.67-4.41,5.16-7.17,2.79-3.09,3.55-5.82,3.55-5.82l4.62-2.29h-.01Z"/><g class="cls-19"><g><path class="cls-8" d="M337.54,203.84s-1.64-1.36-2.79-1.42"/><path class="cls-8" d="M335.76,206.15s-1.64-1.36-2.79-1.42"/><path class="cls-8" d="M333.99,208.46s-1.64-1.36-2.79-1.42"/></g></g></g><path class="cls-29" d="M340.68,193.55l.85,4.6s-.47,.54-.54,.98,.16,1.58-.24,1.85c-1.59,1.04-3.84-.54-3.84-.54l-1.86-5.69,5.63-1.2h0Z"/></g><path class="cls-23" d="M370.74,145.4c.7,1.81,2.28,3.97,3.27,5.65,.99,1.69,4.05,6.18,2.28,10.9-1.9,5.07-6.11,6.33-10.47,6.33h-10.15c-2.97,0-21.26-4.49-21.26-4.49,0,0,2.11,1.21,3.14,4.49s3.11,25.26,3.11,25.26c-1.35,1.36-3.23,1.92-5.63,1.73,0,0-5.48-17.04-7.75-23.35-2.38-6.59-5.03-13.01-4.52-15.85,.72-3.99,7.63-4.11,13.34-3.91s18.84,.69,21.51,.32l-1.38-4.78,14.5-2.3h.01Z"/><path class="cls-2" d="M376.29,161.96c1.77-4.73-1.29-9.22-2.28-10.9-.99-1.69-2.57-3.84-3.27-5.65l-14.5,2.3,.89,3.05s8.04,1.1,11.55-3.05c0,0,2.56,3.9,3.31,6.24,1.02,3.22,.74,8.46-5.57,9.71-6.31,1.26-29.62-2.17-32.7-2.51-3.09-.34-2.06,1.44-.34,5.06,1.71,3.62,2.43,10.12,3.97,17.9,.98,4.97,2.1,10.38,2.1,10.38,.45-.26,.87-.57,1.24-.94,0,0-2.08-21.97-3.11-25.26-1.03-3.28-3.14-4.49-3.14-4.49,0,0,18.28,4.49,21.26,4.49h10.15c4.36,0,8.57-1.26,10.47-6.33h-.03Z"/><g class="cls-14"><g><path class="cls-11" d="M365.3,145.42c.71,4.31,2.52,6.44,2.34,10.38s-3.36,5.95-12.64,5.12c-9.27-.83-23.53-2.91-24.78-2.56s-.83,2.24,.83,7.86c1.66,5.62,7.33,30.62,7.33,30.62"/><path class="cls-11" d="M367.52,156.79s-2.05,.47-3.7-.98c-1.65-1.45-2.12-8.08-2.12-8.08"/><path class="cls-11" d="M333.75,193.23s4.11,.92,7.28-2.21"/></g></g><path class="cls-17" d="M364.57,92.75s-2.91-2.46-8.33-1.95c-4.32,.41-7.48,2.92-8.47,6.08s-.69,8.94,4.54,12.17c0,0-1.62,.89,.18,2.6,0,0-2.8,.68-3.7,2.24s0,3.01,.54,4.76,.72,2.03-1.62,4.37c-2.35,2.35-4.36,6.5-1.05,11.83s9.07,9.79,17.07,9.37c8.09-.43,17.23-3.13,19.52-15.59,2.29-12.46-5.56-15.3-7.73-14.74,0,0,2.39-5.32,1.67-12.18s-4.07-9.94-6.89-10.16c-4.15-.33-5.72,1.2-5.72,1.2h-.01Z"/><path class="cls-29" d="M362.88,117.33c-1.07,.32-2.86,.59-3.8,1.33-.95,.74-10.3,15.3-10.3,15.3,0,0-8.61-13.48-9.89-15.08-1.34-1.68-7.91-3.79-9.1-3.55-1.48,.3-.68,2.14-.38,3.33,.17,.69,.44,2.58,1.66,3.42s5.54,1.49,5.54,1.49c0,0,7.75,16.31,9.35,18.75,1.04,1.58,2.18,1.6,4.1-.51,1.86-2.05,9.29-11.79,9.29-11.79l3.53-12.7h0Z"/><path class="cls-18" d="M362.88,117.33c-1.71,.62-3.28,.58-4.15,1.68-.86,1.1-1.61,6.13-1.61,6.13,0,0,4.28-.85,5.42-3.1s1.17-4.28,1.17-4.28l-.84-.43h0Z"/><path class="cls-16" d="M368.85,114.53s.74,.52,1.45,.52c.95,.14,4.07,.82,4.7,1.98,1.51,2.09-.04,8.93-.92,13.74-.54,2.93-5.73,9.5-2.18,16.21,0,0-7.99,4.72-16.05,.73-.84-3.99,.15-6.77,.18-11.27-1.14-1.24-2.27-3.51-2.37-4.98-.38-5.48,5.1-7.15,9.37-13.25,1.19-1.7,2.09-1.62,3.72-2.86,1.06-.82,2.12-.82,2.12-.82h-.02Z"/><path class="cls-29" d="M371.32,116.9c2.41-1.52,4.37,.35,5.51,3.1,1.14,2.74,7.18,19.79,7.71,21.91s-1.8,23.08-2.44,24.3-1.3,2.09-3.72,2.09h-11.12s.55-1.14,2.46-1.61c1.91-.48,7.31-.63,8.36-2.33,1.06-1.69,.61-21.25,.61-21.25,0,0-6.7-14.31-8.18-17.87-1.48-3.56-.9-7.26,.81-8.33h0Z"/><path class="cls-18" d="M372.45,115.98c-1.43,0-4.7,3.25-1.94,9.26,0,0,3.58-5.08,6.87-3.85,0,0-1.43-6.23-4.93-5.41Z"/><g><path class="cls-29" d="M365.95,109.03l2.52,2.24,1.11,3.77s-1.58,1.06-2.19,1.98c-.74,1.12-2.41,3.81-4.41,4.04,0,0,.2-2.43-.1-3.73-.3-1.31-1.22-3.9-1.22-3.9l4.28-4.4h.01Z"/><path class="cls-24" d="M365.95,109.03s.54,2.11,.45,3.18-1.04,3.3-3.52,5.12c-.3-1.31-1.22-3.9-1.22-3.9l4.28-4.4h0Z"/><path class="cls-24" d="M355.34,104.28c-.47,1.7-2.42,4.08-1.99,4.5,.35,.35,2.01,.27,2.01,.27,0,0,1.22-1.17,.81-2.82s-.82-1.95-.82-1.95h-.01Z"/><path class="cls-29" d="M359.56,93.67c-2.35,.21-4.7,3.47-4.66,6.43s.73,4.57,.54,6.66-.18,4.1,.7,6.3c.58,1.46,2.11,1.79,4.13,1.3,1.86-.45,4.39-2.23,4.98-2.8,.58-.56,.69-2.53,.69-2.53,0,0,2.77-.41,4.04-2.94,1.27-2.53,1.04-13.46-10.43-12.42h0Z"/><path class="cls-17" d="M365.95,109.03s2.53-.99,2.3-3.8c-.23-2.88-4.11-2.99-3.96-.45,0,0-2.72-.54-4.37-2.48-3.11-3.65-3.46-6.62-3.46-6.62,.66-4.54,8.1-2.93,8.1-2.93,0,0,3.77-1.63,6.98,.51,2.3,1.53,3.47,7.03,1.61,11.61-1.86,4.57-4.69,6.4-4.69,6.4l-2.52-2.24h0Z"/><g><g><path class="cls-17" d="M357.38,105.01c.02-.38,.34-.66,.72-.64s.66,.34,.64,.72c-.02,.38-.34,.66-.72,.64-.37-.02-.66-.34-.64-.72Z"/><path class="cls-17" d="M356.82,103.23l3.11,.99s-.07-1.06-1.14-1.39c-1.3-.4-1.97,.4-1.97,.4h0Z"/></g><path class="cls-24" d="M366.65,104.62c-.42-.15-1.05-.13-1.41,.16-.13,.11,.09,.32,.22,.28,.71-.27,1.59-.3,1.94,.53,.02,.04,.05,0,.04-.03-.09-.46-.35-.78-.8-.94h0Z"/><path class="cls-24" d="M366.32,104.69c-.08-.04-.26,.16-.24,.22,.12,.05,.3,.19,.39,.34,.15,.27,.19,.5,.17,.81-.06,.71-.46,1.22-1.15,1.39-.01,0-.03,.04-.01,.04,.61,.15,1.29-.47,1.43-1.02,.15-.6,.11-1.45-.58-1.78h-.01Z"/></g></g><path class="cls-29" d="M363.01,118.2c.04,.81-1.49,2.6-1.12,3.84,.38,1.24,2.94,1.4,4.33,0,1.38-1.4,2.19-5.8,4.08-6.99,0,0-.64,0-.93-.76l-6.35,3.92h0Z"/><path class="cls-26" d="M335.4,113.96s-.75,6.66,1.82,11.99c.25,.53,.04,1.16-.48,1.44l-3.14,1.74c-.67,.37-1.51,0-1.65-.77-.49-2.61-1.17-8.34,.61-14.74l2.83,.33h.01Z"/><path class="cls-29" d="M332.12,115.69c.79,.22,1.94,.72,1.98,1.47s-1.21,.79-1.21,.79c0,0,.89,.39,.95,.95,.07,.56-.49,1.12-1.31,1.12,0,0,.85,.29,.59,1.05s-1.51,.13-1.75,.69c0,0-.74-.72-.8-2.33-.07-1.61,1.57-3.74,1.57-3.74h-.02Z"/><path class="cls-29" d="M338.89,118.87c-.76-1.45-1.5-2.51-3.21-3.18-1.46-.57-2.15-1.7-2.53-1.13s.65,2.38,2.25,2.93l3.5,1.38h-.01Z"/><path class="cls-26" d="M330.54,113.74l6.48,.82c1.66,.2,2.69-8.35,1.03-8.55l-6.36-1.07-1.15,8.8h0Z"/><path class="cls-27" d="M331.69,104.94c-2.36-.27-10.49-4.07-12.26-10.91-6.67-.85-9.79,23.78-3.12,24.63,1.83-4.25,10.97-5.33,14.24-4.92,1.27,.17,2.41-8.64,1.15-8.8h0Z"/><path class="cls-6" d="M358.74,87.22c2.07,.49,5.11,2.93,5.84,5.52"/></g><g><path class="cls-32" d="M158.8,166.63c5.34,4.87,11.16,8.18,17.89,6.9,9.49-1.81,16.89-11.48,16.89-11.48,0,0,2.44,3.19,2.44,3.51s-6.27,12.75-17.64,15.3-21.59-5.6-21.59-5.6l2-8.63h0Z"/><path class="cls-27" d="M256.22,233.77c4.49,6.34,12.93,8.48,19.9,5.04l12.66-6.24c2.4-1.18,5.31-.37,6.75,1.89l22.88,35.95c1.61,2.54,.78,5.9-1.84,7.39-7.4,4.19-22.68,11.27-39.51,9.9-23.62-1.92-38.99-23.88-65-64.75s-39.39-64.09-31.13-86.3c5.88-15.82,18.77-26.67,25.7-31.6,2.45-1.74,5.85-1.07,7.47,1.46l22.88,35.95c1.44,2.26,.94,5.24-1.15,6.92l-11.01,8.82c-6.06,4.86-7.7,13.4-3.86,20.16l35.27,55.42h-.01Z"/><path class="cls-36" d="M226.54,156.79l9.27-7.43c2.09-1.68,2.58-4.66,1.15-6.92l-12.09-19-10.93-17.12c-1.66-2.38-4.94-2.98-7.33-1.28-2.35,1.67-5.39,4.04-8.6,7.04l28.53,44.72h0Z"/><path class="cls-36" d="M306.55,282.61c4.07-1.64,7.5-3.39,10.01-4.81,2.54-1.44,3.38-4.64,1.95-7.15l-23.51-36.84c-1.54-1.74-4.09-2.29-6.24-1.23l-10.76,5.3,28.54,44.73h0Z"/><path class="cls-4" d="M159.15,166.9l4.33,3.24s1.95,5.99-1.34,9.1l-5.73-3.47,2.75-8.87h-.01Z"/></g><g><path class="cls-33" d="M84.41,289.44s4.28-3.2,7.01-8.92c2.84-5.93,.31-11.11-3.66-10.35-4.23,.8-4.82-2.66-5.98-7.04-1.4-5.25-8.19-12.73-13.74-11.98-7.15,.97-2.63,8.62-1.9,11.4,.73,2.78,2.54,5.97-1.9,6.41-4.04,.4-5.81,4.07-2.66,7.82,2.99,3.57,6.25,3.52,6.4,7.14,.15,3.62,2.4,4.65,4.3,5.52h12.13Z"/><path class="cls-5" d="M71.03,257.49s9.74,12.72,7.28,31.95"/></g><g><path class="cls-21" d="M171.48,289.44s2.76-3.72,1.1-9.07c-2.15-6.91-8.56-10.11-6.25-14.63,1.92-3.76,7.68-1.86,10.72,3.21,2.93,4.87,3.15,15.14-1.47,20.48h-4.1Z"/><path class="cls-5" d="M170.85,267.72s8.83,9.55,3.05,21.72"/></g><g><path class="cls-1" d="M178.02,289.44s6.67-4.07,10.32-12.49,3.81-18.26,0-21.76c-3.56-3.26-7.78-1.27-8.89,4.45s1.43,20.22-6.03,29.8h4.6Z"/><path class="cls-5" d="M185.01,256.78s1.11,8.62-1.43,17.81-7.31,14.85-7.31,14.85"/></g><g><path class="cls-33" d="M271.93,289.44s.15-11.77-9.19-22.73c-9.33-10.96-20.01-14.89-29.24-11.56-6.87,2.48-5.1,10.43,.51,13.81,6.65,4.01,31.54,5.63,32.43,20.48h5.49Z"/><path class="cls-5" d="M234.5,260.46c12.68-.72,32.1,10.97,34.77,28.98"/></g><g><path class="cls-35" d="M274.83,289.44s6.14-6.55,4.96-19.16c-1.19-12.61-12.28-15.74-14.27-9.65-1.57,4.8,9.23,15.97,5.38,28.81h3.93Z"/><path class="cls-5" d="M270.89,261.52c2.38,3.08,6.96,15.69,2.29,27.92"/></g><path class="cls-27" d="M467.34,290H54.9c-.87,0-1.57-.48-1.57-1.07h0c0-.59,.71-1.07,1.57-1.07H467.34c.87,0,1.57,.48,1.57,1.07h0c0,.59-.71,1.07-1.57,1.07Z"/></g><g><g><g><path class="cls-13" d="M168.25,286.19c.25,.48,.06,1.45-1.86,2.25-1.93,.8-5.41,.46-6.79,.19s-2.23-.67-4.27-.25c-2.05,.43-5.4,.24-6.42-.62-.35-.41-.12-1.25-.12-1.25l19.47-.33h-.01Z"/><g><path class="cls-22" d="M149.89,280.2c-.28,1.41-1.43,4.71-1.1,6.32,1.44,1.22,4.52,1.3,6.83,.72s3.94,.6,6.84,.77c2.85,.17,5.22-.62,5.8-1.82,.63-1.3-4.34-2.31-7.72-3.35-3.79-1.16-5.75-3.03-5.75-3.03l-4.9,.38h0Z"/><g class="cls-30"><g><path class="cls-12" d="M155.93,282.92s.68-1.91,1.59-2.53"/><path class="cls-12" d="M158.51,283.94s.68-1.91,1.59-2.53"/><path class="cls-12" d="M161.09,284.96s.68-1.91,1.59-2.53"/></g></g></g><path class="cls-29" d="M149.89,274.59v5.61s.65,.22,.92,.53c.27,.32,.64,1.38,1.1,1.39,1.81,.07,2.88-2.31,2.88-2.31l.68-5.1-5.58-.13h0Z"/></g><g><path class="cls-25" d="M104.7,287.65c-.4,.37-1.38,.44-2.66-1.2-1.28-1.65-1.87-5.09-1.98-6.5-.1-1.41,.06-2.32-.89-4.19-.96-1.86-1.66-5.15-1.1-6.36,.3-.45,1.18-.44,1.18-.44l5.46,18.69h0Z"/><g><path class="cls-18" d="M105.63,268.35c-1.43,.1-4.92-.13-6.39,.61-.79,1.71-.06,4.7,1.11,6.78s.46,3.96,1.06,6.8c.59,2.79,1.98,4.87,3.28,5.11,1.42,.27,1.08-4.79,1.18-8.33,.12-3.96,1.4-6.35,1.4-6.35l-1.67-4.62h.03Z"/><g class="cls-20"><g><path class="cls-7" d="M104.61,274.9s2.02,.15,2.86,.87"/><path class="cls-7" d="M104.3,277.65s2.02,.15,2.86,.87"/><path class="cls-7" d="M104,280.41s2.02,.15,2.86,.87"/></g></g></g><path class="cls-29" d="M109.25,265.75l-3.62,2.6s-.04,.68-.27,1.03c-.24,.35-1.16,.98-1.05,1.43,.41,1.77,2.99,2.16,2.99,2.16l5.03-2.68-3.08-4.54Z"/></g><path class="cls-26" d="M160.71,194.74c-6.28,0-10.95,.47-10.95,.47-2.01,.88-5.45,5.44-6.47,8.34s.49,6.95,1.02,9.44c2.95,13.88,5.96,23.53,7.11,29.03,.7,3.37-1.8,3.9-1.82,9.24-.03,7.63,.28,23.91,.28,23.91,0,0,2.35,1.37,5.46,.43,0,0,4.71-26.84,5.23-29.92,.84-4.98,1.13-7.07,1.22-15.69,.13-12.12-1.08-35.26-1.08-35.26h0Z"/><path class="cls-23" d="M160.63,205.26c-1.05,4.91-8.09,10.82-8.09,10.82-.8,2.29-11.12,37.63-12.84,38.98-1.72,1.33-27.37,15.23-27.37,15.23-1.24-.66-1.98-1.67-2.44-2.56-.35-.7-.51-1.33-.59-1.68-.02-.12-.04-.2-.04-.24-.01-.03-.01-.05-.01-.05,0,0,13.14-13.89,16.23-15.37,3.38-1.62,5.28-2.06,5.28-2.06h0c3.53-16.43,3.42-29.26,6.28-38.34,.52-1.68,1.08-3.18,1.66-4.46,.74-1.61,1.29-2.95,1.74-4.09,.19-.49,.36-.94,.51-1.38,.16-.43,.29-.83,.41-1.2,.08-.25,.16-.49,.23-.71,.33-1.03,.56-1.86,.81-2.65,.12-.35,.23-.68,.36-1.03,.07-.17,.14-.35,.21-.51,.07-.18,.15-.36,.23-.54h0l4.9,3.66,2.36,1.75,10.15,6.43h.01Z"/><path class="cls-2" d="M150.48,198.83c-.69,.89-1.71,2.09-2.99,3.21-3.64,3.17-5.84,8.1-7.79,18.33-2.19,11.52-5.86,28.64-6.3,29.7-.43,1.06-3.67,.66-9.6,4.99-4.47,3.27-10.97,10.06-13.91,12.66-.35-.7-.51-1.33-.59-1.68-.02-.12-.03-.2-.04-.24-.01-.03-.01-.05-.01-.05,0,0,13.14-13.89,16.23-15.37,3.38-1.62,5.28-2.06,5.28-2.06h0c3.37-16.43,3.42-29.26,6.28-38.34,.52-1.68,1.08-3.17,1.67-4.45,.74-1.61,1.29-2.95,1.73-4.11,.2-.49,.37-.96,.51-1.38,.16-.43,.29-.83,.41-1.2,.08-.25,.16-.49,.23-.71,.33-1.03,.56-1.86,.81-2.65,.12-.35,.23-.68,.36-1.03,.07-.17,.14-.35,.21-.51,.07-.18,.16-.35,.24-.52h0l4.9,3.65,2.36,1.75h.01Z"/><path class="cls-2" d="M160.63,205.26s-3.21,4.21-12.04,4.54c-6.1,.23-9.98-2.22-9.98-2.22l2.38-3.73,19.63,1.42h0Z"/><g class="cls-34"><g><path class="cls-9" d="M156.93,195.59c-3.7,4.74-8.41,7.62-10.37,10.87-1.96,3.25-3.05,10.29-5.59,23.14-2.52,12.77-4.82,21.46-5.52,22.23-.7,.77-5.03,1.53-11.79,6.07-6.77,4.54-14.61,11.81-14.61,11.81"/><path class="cls-9" d="M152.84,206.82s-1.47,8.08-8.66,6.73"/><path class="cls-9" d="M110.64,263.22c.03,2.17,1.55,5.31,4.34,6.99"/></g></g></g><g><polygon class="cls-29" points="151.71 158.65 157.79 163.86 161.28 155.59 154.03 151.41 151.71 158.65"/><path class="cls-24" d="M160.24,158.04s-7.17-2.01-6.21-6.63l7.24,4.18-1.03,2.45h0Z"/></g><path class="cls-31" d="M157.65,163.65c1.4,1.18,2.3,2.84,2.5,4.65,.33,2.94,.59,7.34,.84,13.72,.23,5.8,.81,22.62,.81,22.62,0,0-4.44,2.91-11.89,2.31-7.12-.57-10.2-4.07-10.2-4.07,0,0,.74-23.66,3.08-32.97,3.46-9.6,8.92-11.27,8.92-11.27l5.94,5h0Z"/><g><path class="cls-24" d="M164.91,144.64c.37,.65,2.34,3.4,2.97,4.2,.64,.8-1.9,1.01-1.9,1.01l-1.07-5.21h0Z"/><path class="cls-29" d="M154.03,151.41s.41,.95,.84,1.65c.43,.71,6.39,3.13,7.96,3.32s3.66-.13,3.25-5.38c-.42-5.25-1.75-9.8-5.26-12.18-3.51-2.38-8.43,.22-10.55,3.59-2.13,3.37,.14,9.97,3.77,9h-.01Z"/><path class="cls-17" d="M154.03,151.41h0l-.78,2.42s-.6,.29-2.12-1.6c-1.66-2.07-4.7-5.6-4.4-7.84,.39-2.94,3.76-4,3.76-4,0,0,1.72-5.44,8.44-8.33s9.69,1.97,4.53,5.56c0,0,3.59,1.8,1.32,3.16-2.27,1.36-8.76,1.19-8.76,1.19,0,0,3.19,1.22,2.24,2.12s-5.06,.53-5.06,.53l.51,2.07s-1.68-.51-2.58,.57c-1.08,1.3,.58,4.83,2.89,4.15h0Z"/><path class="cls-6" d="M149.83,134.06s-2,4.34,1.76,7.25c0,0-3.75-.12-4.55-3.68"/><g><g><path class="cls-17" d="M162.27,145.68c-.12-.34-.48-.52-.82-.4-.34,.12-.52,.48-.4,.82,.12,.34,.48,.52,.82,.4,.34-.12,.52-.48,.4-.82Z"/><path class="cls-17" d="M162.32,143.9l-2.6,1.71s-.21-.99,.69-1.57c1.09-.7,1.91-.14,1.91-.14Z"/></g><path class="cls-24" d="M151.96,147.9c.35-.25,.93-.39,1.33-.22,.15,.06,0,.32-.13,.31-.72-.06-1.54,.13-1.65,.99,0,.05-.05,0-.05-.02-.03-.45,.12-.8,.49-1.07h0Z"/><path class="cls-24" d="M152.29,147.88c.06-.05,.28,.08,.28,.13-.09,.08-.23,.25-.27,.42-.07,.28-.05,.51,.05,.79,.24,.64,.74,1.01,1.42,.97,0,0,.04,.03,.02,.04-.52,.29-1.31-.1-1.58-.56-.3-.51-.48-1.3,.07-1.78h0Z"/></g></g><path class="cls-4" d="M149.07,163.91c-1.47,.78-3.4,5.02-2.03,9.61s3.15,9.32,3.15,9.32c0,0,7.09-1.67,8.95-6.19,0,0-2.5-6.12-3.67-8.59s-2.69-6.12-6.41-4.15h.01Z"/><path class="cls-4" d="M156.49,190.55c1.59,1.59,3.75,3.34,4.96,3.82-.09-2.67-.2-4.93-.29-7.41l-5.3-7.05-3.49-.94-1.25,3.61s2.83,5.43,5.37,7.97Z"/><path class="cls-29" d="M150.75,163.86c-3.35,.89-4.49,5.7-1.12,13.14,3.23,7.14,8.44,13.67,11.65,15.91s15.61,1.5,25.99-1.57c0,0,5.91-2.12,7.56-3.58,3.66-3.25,3.84-7.56,1.15-6.92s-6.94,3.56-6.94,3.56c0,0-1.13-2.22-1.95-3.95,0,0-.73,.19-.98,1.73-.26,1.54-.23,3.68-.68,3.99-1.19,.83-17.82,2.23-19.81,.27-2.25-2.22-5.51-8.1-7.82-13.53-2.56-6-3.62-9.96-7.04-9.05h-.01Z"/><path class="cls-31" d="M149.63,163.11c-1.47,.78-3.4,5.02-2.03,9.61s3.15,9.32,3.15,9.32c0,0,6.65-1.01,9.48-4.83,0,0-3.03-7.48-4.19-9.95-1.17-2.48-2.69-6.12-6.4-4.15h0Z"/></g></g></g></svg>